<svg xmlns="http://www.w3.org/2000/svg" viewBox="0 0 310 330"><defs><marker id="arrow" viewBox="0 0 10 10" refX="8" refY="5" markerWidth="5" markerHeight="5" orient="auto"><path d="M1 1 L9 5 L1 9" fill="none" stroke="#315c49" stroke-width="1.5"/></marker></defs><g fill="none" stroke="#d6e1c9" stroke-width="16" stroke-linecap="round" stroke-linejoin="round"><path d="M78 220 Q20 243 65 277 L78 285"/><path d="M78 285 L78 167"/><path d="M78 167 Q136 142 181 163"/><path d="M181 163 Q200 180 200 205 L200 285"/><path d="M78 167 L53 142 L33 113 L83 73 L119 101"/><path d="M119 101 L158 72 L184 91 L208 121"/></g><g fill="none" stroke="#315c49" stroke-width="2" stroke-linecap="round" stroke-dasharray="2 5"><path d="M78 220 Q20 243 65 277 L78 285" marker-end="url(#arrow)"/><path d="M78 285 L78 167" marker-end="url(#arrow)"/><path d="M78 167 Q136 142 181 163" marker-end="url(#arrow)"/><path d="M181 163 Q200 180 200 205 L200 285" marker-end="url(#arrow)"/><path d="M78 167 L53 142 L33 113 L83 73 L119 101" marker-end="url(#arrow)"/><path d="M119 101 L158 72 L184 91 L208 121" marker-end="url(#arrow)"/></g><g fill="#fffefa" stroke="#315c49" stroke-width="1.2"><circle cx="37" cy="261" r="12"/><text x="37" y="265">1</text><circle cx="99" cy="225" r="12"/><text x="99" y="229">2</text><circle cx="131" cy="181" r="12"/><text x="131" y="185">3</text><circle cx="222" cy="227" r="12"/><text x="222" y="231">4</text><circle cx="75" cy="59" r="12"/><text x="75" y="63">5</text><circle cx="173" cy="59" r="12"/><text x="173" y="63">6</text></g><style>text{font:12px sans-serif;text-anchor:middle;fill:#315c49;stroke:none}</style></svg>